<?xml version="1.0" encoding="UTF-8"?>
<svg xmlns="http://www.w3.org/2000/svg" xmlns:xlink="http://www.w3.org/1999/xlink" width="30px" height="30px" viewBox="0 0 30 30" version="1.1">
<g id="surface1">
<path style=" stroke:none;fill-rule:nonzero;fill:rgb(72.54902%,74.901961%,76.862745%);fill-opacity:1;" d="M 28.6875 12 C 28.199219 11.511719 27.40625 11.511719 26.921875 12 L 13.304688 25.671875 C 10.863281 28.113281 6.90625 28.113281 4.464844 25.675781 C 2.023438 23.234375 2.023438 19.277344 4.464844 16.835938 L 17.652344 3.59375 C 19.117188 2.152344 21.476562 2.160156 22.933594 3.617188 C 24.390625 5.070312 24.398438 7.429688 22.953125 8.898438 L 9.769531 22.136719 C 9.273438 22.609375 8.496094 22.609375 8 22.136719 C 7.511719 21.648438 7.511719 20.859375 8 20.371094 L 19.742188 8.578125 C 20.214844 8.085938 20.207031 7.304688 19.726562 6.824219 C 19.242188 6.34375 18.464844 6.335938 17.972656 6.808594 L 6.234375 18.601562 C 4.769531 20.066406 4.769531 22.441406 6.234375 23.90625 C 7.71875 25.324219 10.054688 25.324219 11.539062 23.90625 L 24.722656 10.664062 C 27.109375 8.214844 27.085938 4.300781 24.667969 1.882812 C 22.246094 -0.535156 18.332031 -0.5625 15.882812 1.828125 L 2.699219 15.066406 C -0.71875 18.484375 -0.71875 24.023438 2.699219 27.441406 C 6.113281 30.859375 11.65625 30.859375 15.074219 27.441406 L 28.6875 13.773438 C 28.921875 13.539062 29.054688 13.21875 29.054688 12.886719 C 29.054688 12.554688 28.921875 12.234375 28.6875 12 Z M 28.6875 12 "/>
</g>
</svg>
