<?xml version="1.0" encoding="UTF-8"?>
<svg xmlns="http://www.w3.org/2000/svg" xmlns:xlink="http://www.w3.org/1999/xlink" width="30px" height="30px" viewBox="0 0 30 30" version="1.1">
<g id="surface1">
<path style=" stroke:none;fill-rule:nonzero;fill:rgb(72.54902%,74.901961%,76.862745%);fill-opacity:1;" d="M 15 0 C 6.71875 0.0078125 0.0078125 6.71875 0 15 C 0.75 34.875 29.25 34.867188 30 15 C 29.992188 6.71875 23.28125 0.0078125 15 0 Z M 15 27.5 C 8.097656 27.492188 2.507812 21.902344 2.5 15 C 3.125 -1.558594 26.875 -1.554688 27.5 15 C 27.492188 21.902344 21.902344 27.492188 15 27.5 Z M 8.75 11.875 C 8.75 10.839844 9.589844 10 10.625 10 C 11.660156 10 12.5 10.839844 12.5 11.875 C 12.5 12.910156 11.660156 13.75 10.625 13.75 C 9.589844 13.75 8.75 12.910156 8.75 11.875 Z M 17.5 11.875 C 17.5 10.839844 18.339844 10 19.375 10 C 20.410156 10 21.25 10.839844 21.25 11.875 C 21.25 12.910156 20.410156 13.75 19.375 13.75 C 18.339844 13.75 17.5 12.910156 17.5 11.875 Z M 22.300781 19.425781 C 20.808594 22.0625 18.027344 23.707031 15 23.75 C 11.96875 23.707031 9.1875 22.0625 7.691406 19.425781 C 7.417969 19.003906 7.425781 18.457031 7.714844 18.042969 C 8 17.628906 8.507812 17.425781 9 17.53125 C 10.921875 18.253906 12.949219 18.667969 15 18.75 C 17.050781 18.664062 19.070312 18.253906 20.988281 17.53125 C 21.484375 17.425781 21.992188 17.625 22.277344 18.042969 C 22.566406 18.457031 22.574219 19.003906 22.300781 19.425781 Z M 22.300781 19.425781 "/>
</g>
</svg>
